<svg width="20" height="20" viewBox="0 0 20 20" fill="none" xmlns="http://www.w3.org/2000/svg">
<path d="M15.3333 6.2C15.3333 4.82087 14.7714 3.49823 13.7712 2.52304C12.771 1.54786 11.4145 1 10 1C8.58551 1 7.22896 1.54786 6.22876 2.52304C5.22857 3.49823 4.66667 4.82087 4.66667 6.2C4.66667 12.2667 2 14 2 14H18C18 14 15.3333 12.2667 15.3333 6.2Z" fill="#FF8A1E" stroke="#FF8A1E" stroke-width="2" stroke-linecap="round" stroke-linejoin="round"/>
<path d="M12 18C11.7968 18.3042 11.505 18.5566 11.154 18.7321C10.803 18.9076 10.4051 19 10 19C9.59494 19 9.19698 18.9076 8.84598 18.7321C8.49498 18.5566 8.20325 18.3042 8 18" stroke="#FF8A1E" stroke-width="2" stroke-linecap="round" stroke-linejoin="round"/>
</svg>
