<svg width="20" height="20" viewBox="0 0 20 20" fill="none" xmlns="http://www.w3.org/2000/svg">
<path d="M2 7.3L10 1L18 7.3V17.2C18 17.6774 17.8127 18.1352 17.4793 18.4728C17.1459 18.8104 16.6937 19 16.2222 19H3.77778C3.30628 19 2.8541 18.8104 2.5207 18.4728C2.1873 18.1352 2 17.6774 2 17.2V7.3Z" fill="#FF8A1E" stroke="#FF8A1E" stroke-width="2" stroke-linecap="round" stroke-linejoin="round"/>
<path d="M6.99991 13C6.99991 12.4477 7.44763 12 7.99991 12H11.9999C12.5522 12 12.9999 12.4477 12.9999 13V19C12.9999 19.5523 13.4476 20 13.9999 20C24.0275 20 -4.8159 20 5.99991 20C6.5522 20 6.99991 19.5523 6.99991 19V13Z" fill="white"/>
</svg>
