<svg width="20" height="20" viewBox="0 0 20 20" fill="none" xmlns="http://www.w3.org/2000/svg">
<path d="M17 17V15.963C17 15.1771 16.6312 14.4235 15.9749 13.8678C15.3185 13.3122 14.4283 13 13.5 13H6.5C5.57174 13 4.6815 13.3122 4.02513 13.8678C3.36875 14.4235 3 15.1771 3 15.963V17" fill="#FF8A1E"/>
<path d="M17 17V15.963C17 15.1771 16.6312 14.4235 15.9749 13.8678C15.3185 13.3122 14.4283 13 13.5 13H6.5C5.57174 13 4.6815 13.3122 4.02513 13.8678C3.36875 14.4235 3 15.1771 3 15.963V17H17Z" stroke="#FF8A1E" stroke-width="2" stroke-linecap="round" stroke-linejoin="round"/>
<path d="M10 9C11.6569 9 13 7.65685 13 6C13 4.34315 11.6569 3 10 3C8.34315 3 7 4.34315 7 6C7 7.65685 8.34315 9 10 9Z" fill="#FF8A1E" stroke="#FF8A1E" stroke-width="2" stroke-linecap="round" stroke-linejoin="round"/>
</svg>
